/* XPM */
static char * zoom_out_xpm[] = {
"96 96 4 1",
" 	c None",
".	c #999999",
"+	c #9A9A9A",
"@	c #989898",
"                                                                                                ",
"                                                                                                ",
"                                                                                                ",
"                                                                                                ",
"                                                                                                ",
"                                                                                                ",
"                                                                                                ",
"                                                                                                ",
"                                          ............                                          ",
"                                     ......................                                     ",
"                                  ............................                                  ",
"                                ................................                                ",
"                              ....................................                              ",
"                            ........................................                            ",
"                          ............................................                          ",
"                         ..................          ..................                         ",
"                       ................                  ................                       ",
"                      .............                          .............                      ",
"                     ............                              ............                     ",
"                    ............                                ............                    ",
"                   ...........                                    ...........                   ",
"                  ..........                                        ..........                  ",
"                 ..........                                          ..........                 ",
"                ..........                                            ..........                ",
"                .........                                              .........                ",
"               .........                                                .........               ",
"              .........                                                  .........              ",
"              ........                                                    ........              ",
"             ........                                                      ........             ",
"             ........                                                      ........             ",
"            ........                                                        ........            ",
"            ........                                                        ........            ",
"           ........                                                          ........           ",
"           .......                                                            .......           ",
"          ........                                                            ........          ",
"          .......                                                              .......          ",
"          .......                                                              .......          ",
"         ........                                                              ........         ",
"         ........                                                              ........         ",
"         .......                                                                .......         ",
"         .......                                                                .......         ",
"         .......                                                                .......         ",
"        ........                                                                ........        ",
"        .......         +...............................................         .......        ",
"        .......       ....................................................       .......        ",
"        .......       .....................................................      .......        ",
"        .......      .....................................................@      .......        ",
"        .......      ......................................................      .......        ",
"        .......      ......................................................      .......        ",
"        .......      @.....................................................      .......        ",
"        .......      .....................................................       .......        ",
"        .......       ....................................................       .......        ",
"        .......         ...............................................+         .......        ",
"        ........                                                                ........        ",
"         .......                                                                .......         ",
"         .......                                                                .......         ",
"         .......                                                                .......         ",
"         ........                                                              ........         ",
"         ........                                                              ........         ",
"          .......                                                              .......          ",
"          .......                                                              .......          ",
"          ........                                                            ........          ",
"           .......                                                            .......           ",
"           ........                                                          ........           ",
"            ........                                                        ........            ",
"            ........                                                        ........            ",
"             ........                                                      ........             ",
"             ........                                                      ........             ",
"              ........                                                    ........              ",
"              .........                                                  .........              ",
"               .........                                                .........               ",
"                .........                                              .........                ",
"                ..........                                            ..........                ",
"                 ..........                                          ..........                 ",
"                  ..........                                        ..........                  ",
"                   ...........                                    ...........                   ",
"                    ............                                ............                    ",
"                     ............                              ............                     ",
"                      .............                          .............                      ",
"                       ................                  ................                       ",
"                         ..................          ..................                         ",
"                          ............................................                          ",
"                            ........................................                            ",
"                              ....................................                              ",
"                                ................................                                ",
"                                  ............................                                  ",
"                                     ......................                                     ",
"                                          ............                                          ",
"                                                                                                ",
"                                                                                                ",
"                                                                                                ",
"                                                                                                ",
"                                                                                                ",
"                                                                                                ",
"                                                                                                ",
"                                                                                                "};
